<?xml version="1.0" encoding="UTF-8"?>
<svg width="48" height="48" viewBox="0 0 48 48" fill="none" xmlns="http://www.w3.org/2000/svg">
  <path d="M24 4C12.954 4 4 12.954 4 24C4 35.046 12.954 44 24 44C35.046 44 44 35.046 44 24C44 12.954 35.046 4 24 4Z" stroke="#4A5F45" stroke-width="2"/>
  <path d="M32 18C32 18 28 14 24 14C20 14 16 18 16 22C16 26 20 30 24 30" stroke="#4A5F45" stroke-width="2" stroke-linecap="round"/>
  <path d="M24 30C27.3137 30 30 27.3137 30 24" stroke="#4A5F45" stroke-width="2" stroke-linecap="round"/>
  <path d="M20 20C20 20 22 18 24 18C26 18 28 20 28 22" stroke="#4A5F45" stroke-width="2" stroke-linecap="round"/>
</svg>
