<svg width="24" height="24" viewBox="0 0 24 24" fill="none" xmlns="http://www.w3.org/2000/svg">
<g clip-path="url(#clip0_113_14)">
<path d="M12.0003 9.42836C18.1543 9.42836 23.1431 7.50958 23.1431 5.14265C23.1431 2.77571 18.1543 0.856934 12.0003 0.856934C5.84625 0.856934 0.857422 2.77571 0.857422 5.14265C0.857422 7.50958 5.84625 9.42836 12.0003 9.42836Z" stroke="#39251A" stroke-width="1.5" stroke-linecap="round" stroke-linejoin="round"/>
<path d="M0.857422 5.14258V18.8569C0.857422 21.2226 5.84599 23.1426 12.0003 23.1426C18.1546 23.1426 23.1431 21.2226 23.1431 18.8569V5.14258" stroke="#39251A" stroke-width="1.5" stroke-linecap="round" stroke-linejoin="round"/>
<path d="M23.1431 11.9998C23.1431 14.3655 18.1546 16.2855 12.0003 16.2855C5.84599 16.2855 0.857422 14.3655 0.857422 11.9998" stroke="#39251A" stroke-width="1.5" stroke-linecap="round" stroke-linejoin="round"/>
</g>
<defs>
<clipPath id="clip0_113_14">
<rect width="24" height="24" fill="white"/>
</clipPath>
</defs>
</svg>
