<svg width="24" height="25" viewBox="0 0 24 25" fill="none" xmlns="http://www.w3.org/2000/svg">
<g clip-path="url(#clip0_62_17186)">
<path d="M19.7137 10.9762L18.188 22.3248C18.1375 22.7429 17.9348 23.1278 17.6186 23.406C17.3024 23.6843 16.8949 23.8364 16.4737 23.8333H7.50801C7.08685 23.8364 6.67931 23.6843 6.36313 23.406C6.04695 23.1278 5.84426 22.7429 5.79373 22.3248L4.28516 10.9762" stroke="#39251A" stroke-width="1.5" stroke-linecap="round" stroke-linejoin="round"/>
<path d="M18.3937 6.99898C18.2744 6.64415 18.0423 6.33812 17.7328 6.12763C17.4232 5.91714 17.0533 5.81375 16.6794 5.83326H7.23373C6.87434 5.83234 6.52375 5.94438 6.23151 6.15356C5.93927 6.36275 5.72016 6.65849 5.60516 6.99898L4.28516 10.9761H19.7137L18.3937 6.99898Z" stroke="#39251A" stroke-width="1.5" stroke-linecap="round" stroke-linejoin="round"/>
<path d="M14.5706 5.83332V3.26189C14.5706 2.80724 14.39 2.3712 14.0685 2.04971C13.747 1.72822 13.311 1.54761 12.8563 1.54761H11.142C10.6874 1.54761 10.2513 1.72822 9.92984 2.04971C9.60835 2.3712 9.42773 2.80724 9.42773 3.26189V5.83332" stroke="#39251A" stroke-width="1.5" stroke-linecap="round" stroke-linejoin="round"/>
</g>
<defs>
<clipPath id="clip0_62_17186">
<rect width="24" height="24" fill="white" transform="translate(0 0.69043)"/>
</clipPath>
</defs>
</svg>
