<svg width="24" height="24" viewBox="0 0 24 24" fill="none" xmlns="http://www.w3.org/2000/svg">
<g clip-path="url(#clip0_62_17154)">
<path d="M22.9024 11.3486C22.9317 11.1093 22.9102 10.8665 22.8393 10.6361C22.7684 10.4057 22.6497 10.1929 22.491 10.0114C22.3303 9.82859 22.1326 9.68203 21.9109 9.58153C21.6892 9.48103 21.4487 9.4289 21.2053 9.42859H2.79383C2.55043 9.4289 2.30988 9.48103 2.08819 9.58153C1.86651 9.68203 1.66876 9.82859 1.50812 10.0114C1.34938 10.1929 1.23069 10.4057 1.15979 10.6361C1.0889 10.8665 1.0674 11.1093 1.09669 11.3486L2.3824 21.6343C2.43293 22.0524 2.63562 22.4373 2.9518 22.7156C3.26798 22.9938 3.67552 23.1459 4.09669 23.1429H19.9367C20.3578 23.1459 20.7654 22.9938 21.0816 22.7156C21.3978 22.4373 21.6004 22.0524 21.651 21.6343L22.9024 11.3486Z" stroke="#39251A" stroke-width="1.5" stroke-linecap="round" stroke-linejoin="round"/>
<path d="M4.28516 9.42861V8.57146C4.28516 6.52551 5.09791 4.56335 6.54462 3.11664C7.99133 1.66993 9.95349 0.857178 11.9994 0.857178C14.0454 0.857178 16.0076 1.66993 17.4543 3.11664C18.901 4.56335 19.7137 6.52551 19.7137 8.57146V9.42861" stroke="#39251A" stroke-width="1.5" stroke-linecap="round" stroke-linejoin="round"/>
<path d="M8.57031 14.5715V18.0001" stroke="#39251A" stroke-width="1.5" stroke-linecap="round" stroke-linejoin="round"/>
<path d="M15.4277 14.5715V18.0001" stroke="#39251A" stroke-width="1.5" stroke-linecap="round" stroke-linejoin="round"/>
</g>
<defs>
<clipPath id="clip0_62_17154">
<rect width="24" height="24" fill="white"/>
</clipPath>
</defs>
</svg>
