<svg width="24" height="24" viewBox="0 0 24 24" fill="none" xmlns="http://www.w3.org/2000/svg">
<g clip-path="url(#clip0_324_179)">
<path d="M7.71456 22.2856C11.5017 22.2856 14.5717 19.2155 14.5717 15.4284C14.5717 11.6413 11.5017 8.57129 7.71456 8.57129C3.92747 8.57129 0.857422 11.6413 0.857422 15.4284C0.857422 19.2155 3.92747 22.2856 7.71456 22.2856Z" stroke="#39251A" stroke-width="1.5" stroke-linecap="round" stroke-linejoin="round"/>
<path d="M16.2888 22.2856C20.0759 22.2856 23.1459 19.2155 23.1459 15.4284C23.1459 11.6413 20.0759 8.57129 16.2888 8.57129C12.5017 8.57129 9.43164 11.6413 9.43164 15.4284C9.43164 19.2155 12.5017 22.2856 16.2888 22.2856Z" stroke="#39251A" stroke-width="1.5" stroke-linecap="round" stroke-linejoin="round"/>
<path d="M12.0017 15.4284C15.7888 15.4284 18.8588 12.3583 18.8588 8.57125C18.8588 4.78416 15.7888 1.71411 12.0017 1.71411C8.21458 1.71411 5.14453 4.78416 5.14453 8.57125C5.14453 12.3583 8.21458 15.4284 12.0017 15.4284Z" stroke="#39251A" stroke-width="1.5" stroke-linecap="round" stroke-linejoin="round"/>
</g>
<defs>
<clipPath id="clip0_324_179">
<rect width="24" height="24" fill="white"/>
</clipPath>
</defs>
</svg>
