<svg width="24" height="24" viewBox="0 0 24 24" fill="none" xmlns="http://www.w3.org/2000/svg">
<g clip-path="url(#clip0_112_87)">
<path d="M0.857422 6.85718V2.57146C0.857422 2.11681 1.03803 1.68077 1.35952 1.35928C1.68102 1.03779 2.11705 0.857178 2.57171 0.857178H6.85742" stroke="#39251A" stroke-width="1.5" stroke-linecap="round" stroke-linejoin="round"/>
<path d="M23.1426 6.85718V2.57146C23.1426 2.11681 22.962 1.68077 22.6405 1.35928C22.319 1.03779 21.8829 0.857178 21.4283 0.857178H17.1426" stroke="#39251A" stroke-width="1.5" stroke-linecap="round" stroke-linejoin="round"/>
<path d="M0.857422 17.1428V21.4285C0.857422 21.8832 1.03803 22.3192 1.35952 22.6407C1.68102 22.9622 2.11705 23.1428 2.57171 23.1428H6.85742" stroke="#39251A" stroke-width="1.5" stroke-linecap="round" stroke-linejoin="round"/>
<path d="M23.1426 17.1428V21.4285C23.1426 21.8832 22.962 22.3192 22.6405 22.6407C22.319 22.9622 21.8829 23.1428 21.4283 23.1428H17.1426" stroke="#39251A" stroke-width="1.5" stroke-linecap="round" stroke-linejoin="round"/>
<path d="M1.71484 12.8571H6.00056L8.57199 6L12.0006 15.4286L15.4291 8.57143L18.0006 12.8571H22.2863" stroke="#39251A" stroke-width="1.5" stroke-linecap="round" stroke-linejoin="round"/>
</g>
<defs>
<clipPath id="clip0_112_87">
<rect width="24" height="24" fill="white"/>
</clipPath>
</defs>
</svg>
