<?xml version="1.0" encoding="UTF-8"?>
<svg width="48" height="48" viewBox="0 0 48 48" fill="none" xmlns="http://www.w3.org/2000/svg">
  <path d="M24 44C35.046 44 44 35.046 44 24C44 12.954 35.046 4 24 4C12.954 4 4 12.954 4 24C4 35.046 12.954 44 24 44Z" stroke="#3E5641" stroke-width="2"/>
  <path d="M24 16C24 16 20 20 20 24C20 28 24 32 28 32" stroke="#3E5641" stroke-width="2" stroke-linecap="round"/>
  <path d="M28 16C28 16 32 20 32 24C32 28 28 32 24 32" stroke="#3E5641" stroke-width="2" stroke-linecap="round"/>
  <path d="M24 24L28 28" stroke="#3E5641" stroke-width="2" stroke-linecap="round"/>
</svg>
